<svg viewBox="0 0 50 50" fill="none" xmlns="http://www.w3.org/2000/svg">
  <path fill-rule="evenodd" clip-rule="evenodd"
    d="M32.7297 10.7248C33.4473 9.85614 34.7098 9.75382 35.5494 10.4962L45.2994 19.1169C45.744 19.51 46 20.0847 46 20.6897C46 21.2947 45.744 21.8694 45.2994 22.2624L35.83 30.635C35.2868 31.1154 34.5956 31.3793 33.8809 31.3793H10.4182L16.0494 36.3582C16.8891 37.1006 16.988 38.4066 16.2703 39.2752C15.5527 40.1439 14.2902 40.2462 13.4506 39.5038L3.70164 30.8841L3.70083 30.8833C3.25625 30.4903 3 29.9153 3 29.3103C3 28.7053 3.25598 28.1306 3.70056 27.7376L13.17 19.365C13.7132 18.8846 14.4044 18.6207 15.1191 18.6207H38.5818L32.9506 13.6418C32.1109 12.8994 32.012 11.5934 32.7297 10.7248ZM38.5818 22.7586H15.4882L10.4182 27.2414H33.5118L38.5818 22.7586Z"
    fill="url(#paint0_linear_22_175)" />
  <path fill-rule="evenodd" clip-rule="evenodd"
    d="M7.77755 30.3793H33.8809C34.3476 30.3793 34.8042 30.2072 35.1677 29.8858L44.6371 21.5133C44.8622 21.3142 45 21.0145 45 20.6897C45 20.3648 44.8622 20.0651 44.6371 19.8661L34.8871 11.2454C34.4749 10.881 33.8614 10.9249 33.5006 11.3617C33.1234 11.8182 33.1808 12.5105 33.6129 12.8926L41.2225 19.6207H15.1191C14.6524 19.6207 14.1958 19.7928 13.8323 20.1142L4.36295 28.4867C4.13779 28.6858 4 28.9855 4 29.3103C4 29.6347 4.13772 29.9345 4.3627 30.1337C4.36287 30.1339 4.36253 30.1336 4.3627 30.1337L14.1129 38.7546C14.5251 39.119 15.1386 39.0751 15.4994 38.6383C15.8766 38.1818 15.8192 37.4895 15.3871 37.1074L7.77755 30.3793ZM15.1191 18.6207C14.4044 18.6207 13.7132 18.8846 13.17 19.365L3.70056 27.7376C3.25598 28.1306 3 28.7053 3 29.3103C3 29.9153 3.25625 30.4903 3.70083 30.8833L3.70164 30.8841L13.4506 39.5038C14.2902 40.2462 15.5527 40.1439 16.2703 39.2752C16.988 38.4066 16.8891 37.1006 16.0494 36.3582L10.4182 31.3793H33.8809C34.5956 31.3793 35.2868 31.1154 35.83 30.635L45.2994 22.2624C45.744 21.8694 46 21.2947 46 20.6897C46 20.0847 45.744 19.51 45.2994 19.1169L35.5494 10.4962C34.7098 9.75382 33.4473 9.85614 32.7297 10.7248C32.012 11.5934 32.1109 12.8994 32.9506 13.6418L38.5818 18.6207H15.1191ZM15.1096 21.7586H41.2225L33.8904 28.2414H7.77755L15.1096 21.7586ZM15.4882 22.7586H38.5818L33.5118 27.2414H10.4182L15.4882 22.7586Z"
    fill="black" fill-opacity="0.3" />
  <defs>
    <linearGradient id="paint0_linear_22_175" x1="2.5" y1="35.3448" x2="47.9919" y2="15.8001"
      gradientUnits="userSpaceOnUse">
      <stop stop-color="#0231DA" />
      <stop offset="1" stop-color="#40D7F8" />
    </linearGradient>
  </defs>
</svg>