<svg width="50" height="50" viewBox="0 0 50 50" fill="none" xmlns="http://www.w3.org/2000/svg">
  <path fill-rule="evenodd" clip-rule="evenodd"
    d="M28.7098 9.99584C30.0385 8.66805 32.1927 8.66805 33.5214 9.99584L45 21.4667L33.5214 32.9375C32.4826 33.9756 31.1498 34.5128 30.0436 34.8233C28.8816 35.1494 27.5964 35.326 26.3226 35.4182C23.7712 35.6029 20.844 35.4763 18.1586 35.249C18.0876 35.243 18.0166 35.2369 17.9457 35.2307L19.9121 37.1958C21.2408 38.5236 21.2408 40.6764 19.9121 42.0042C18.5835 43.3319 16.4292 43.3319 15.1006 42.0042L4 30.9111L5.65514 28.5709L5.66271 28.5603L5.67715 28.54L5.72618 28.4716C5.76768 28.414 5.82665 28.3327 5.90184 28.2305C6.05214 28.026 6.26785 27.7369 6.53908 27.3848C7.08002 26.6825 7.84966 25.7192 8.76826 24.6714C10.5292 22.6628 13.1194 20.0128 15.854 18.4945C20.1063 16.1338 25.6826 15.9415 30.1966 16.29L28.7098 14.8042C27.3811 13.4764 27.3811 11.3236 28.7098 9.99584ZM33.3439 23.4982C32.7115 23.4011 32.0484 23.3107 31.3646 23.2326C26.7216 22.702 22.0154 22.8528 19.1587 24.4388C17.8271 25.1781 16.2986 26.5523 14.8735 28.0654C16.081 28.2159 17.3941 28.3599 18.7331 28.4733C21.2754 28.6885 23.7972 28.7832 25.8309 28.636C26.8496 28.5622 27.641 28.4345 28.2038 28.2766C28.5629 28.1758 28.7271 28.0908 28.7718 28.0672L33.3439 23.4982Z"
    fill="url(#paint0_linear_30_7)" />
  <path
    d="M15.8074 41.2968L5.30346 30.8L6.47093 29.1493L6.47157 29.1484L6.47724 29.1404L6.47849 29.1386L6.48971 29.1229L6.49168 29.1201L6.53754 29.0562C6.5377 29.056 6.53787 29.0557 6.53804 29.0555C6.57773 29.0004 6.63463 28.922 6.70754 28.8228C6.85389 28.6237 7.0651 28.3406 7.33132 27.995L6.53908 27.3848L7.33132 27.995C7.86268 27.3051 8.61874 26.3589 9.52021 25.3306C11.2689 23.3361 13.7645 20.7984 16.3394 19.3688C20.323 17.1572 25.6483 16.9419 30.1197 17.287L32.8174 17.4953L30.9035 15.5827L29.4167 14.0968C28.4788 13.1596 28.4788 11.6404 29.4167 10.7032C30.3549 9.76561 31.8763 9.76561 32.8145 10.7032L43.5853 21.4667L32.8145 32.2302C31.9508 33.0933 30.8077 33.5702 29.7734 33.8605C28.6993 34.1619 27.4866 34.3313 26.2504 34.4208C23.775 34.6 20.9073 34.4781 18.243 34.2525L18.0324 34.2345L15.2957 33.9962L17.2388 35.938L19.2053 37.9032C20.1431 38.8404 20.1431 40.3596 19.2053 41.2968C18.2671 42.2344 16.7456 42.2344 15.8074 41.2968ZM34.0508 24.2055L35.4479 22.8094L33.4956 22.5098C32.8517 22.411 32.1758 22.3188 31.4781 22.239C29.1131 21.9688 26.7082 21.869 24.5118 22.0452C22.3287 22.2204 20.2778 22.6737 18.6733 23.5645C17.2027 24.3809 15.5885 25.8478 14.1455 27.3798L12.7946 28.814L14.7498 29.0577C15.9676 29.2095 17.2941 29.355 18.6487 29.4697C21.2119 29.6867 23.7933 29.7861 25.9031 29.6334C26.9591 29.5569 27.8231 29.422 28.474 29.2394C28.9042 29.1186 29.1344 29.0067 29.2394 28.9511L29.3723 28.8808L29.4787 28.7745L34.0508 24.2055Z"
    stroke="black" stroke-opacity="0.2" stroke-width="2" stroke-linecap="round" />
  <defs>
    <linearGradient id="paint0_linear_30_7" x1="3.52325" y1="37.7241" x2="48.9683" y2="21.2978"
      gradientUnits="userSpaceOnUse">
      <stop stop-color="#DD781A" />
      <stop offset="0.4" stop-color="#DE553F" />
      <stop offset="1" stop-color="#DF2076" />
    </linearGradient>
  </defs>
</svg>