<svg width="50" height="50" viewBox="0 0 50 50" fill="none" xmlns="http://www.w3.org/2000/svg">
  <mask id="path-1-inside-1_23_187" fill="white">
    <path fill-rule="evenodd" clip-rule="evenodd"
      d="M32.6355 10.0848C33.7359 8.78467 35.6717 8.63153 36.9591 9.74275L46.9258 18.3449C47.6075 18.9332 48 19.7934 48 20.6989C48 21.6045 47.6075 22.4647 46.9258 23.053L37.246 31.4076C36.5055 32.0467 35.5634 32.3978 34.5893 32.3978H13.3746L16.9801 35.5097C17.1486 35.6551 16.8574 35.4037 17.0258 35.5491C18.3133 36.6603 18.4649 38.6151 17.3645 39.9152C16.2641 41.2153 14.3283 41.3685 13.0409 40.2573C9.72348 37.3941 6.33654 34.4708 3.0753 31.6561L3.07447 31.6554C2.39279 31.067 2 30.2066 2 29.3011C2 28.3955 2.39251 27.5353 3.07419 26.947L12.754 18.5924C13.4945 17.9533 14.4366 17.6022 15.4107 17.6022H36.6254L32.9742 14.4509C31.6867 13.3397 31.5351 11.3849 32.6355 10.0848ZM36.6254 23.7957H16.1653L13.3746 26.2043H33.8347L36.6254 23.7957Z" />
  </mask>
  <path fill-rule="evenodd" clip-rule="evenodd"
    d="M32.6355 10.0848C33.7359 8.78467 35.6717 8.63153 36.9591 9.74275L46.9258 18.3449C47.6075 18.9332 48 19.7934 48 20.6989C48 21.6045 47.6075 22.4647 46.9258 23.053L37.246 31.4076C36.5055 32.0467 35.5634 32.3978 34.5893 32.3978H13.3746L16.9801 35.5097C17.1486 35.6551 16.8574 35.4037 17.0258 35.5491C18.3133 36.6603 18.4649 38.6151 17.3645 39.9152C16.2641 41.2153 14.3283 41.3685 13.0409 40.2573C9.72348 37.3941 6.33654 34.4708 3.0753 31.6561L3.07447 31.6554C2.39279 31.067 2 30.2066 2 29.3011C2 28.3955 2.39251 27.5353 3.07419 26.947L12.754 18.5924C13.4945 17.9533 14.4366 17.6022 15.4107 17.6022H36.6254L32.9742 14.4509C31.6867 13.3397 31.5351 11.3849 32.6355 10.0848ZM36.6254 23.7957H16.1653L13.3746 26.2043H33.8347L36.6254 23.7957Z"
    fill="url(#paint0_linear_23_187)" />
  <path
    d="M36.9591 9.74275L35.6524 11.2568L35.6524 11.2568L36.9591 9.74275ZM32.6355 10.0848L31.1089 8.79269L31.1089 8.79269L32.6355 10.0848ZM46.9258 18.3449L45.619 19.8589L45.6191 19.8589L46.9258 18.3449ZM46.9258 23.053L45.6191 21.539L45.619 21.539L46.9258 23.053ZM37.246 31.4076L38.5527 32.9216L38.5527 32.9216L37.246 31.4076ZM13.3746 32.3978V30.3978H7.99639L12.0679 33.9119L13.3746 32.3978ZM16.9801 35.5097L15.6733 37.0237L15.6733 37.0237L16.9801 35.5097ZM17.0258 35.5491L18.3326 34.035L18.3326 34.035L17.0258 35.5491ZM17.3645 39.9152L18.8911 41.2073L18.8911 41.2073L17.3645 39.9152ZM13.0409 40.2573L14.3476 38.7432L14.3476 38.7432L13.0409 40.2573ZM3.0753 31.6561L4.38206 30.142L4.38174 30.1418L3.0753 31.6561ZM3.07447 31.6554L1.7677 33.1694L1.76802 33.1697L3.07447 31.6554ZM3.07419 26.947L1.76743 25.4329L1.76742 25.4329L3.07419 26.947ZM12.754 18.5924L14.0608 20.1065L14.0608 20.1065L12.754 18.5924ZM36.6254 17.6022V19.6022H42.0036L37.9321 16.0881L36.6254 17.6022ZM32.9742 14.4509L31.6674 15.965L31.6674 15.965L32.9742 14.4509ZM16.1653 23.7957V21.7957H15.4216L14.8585 22.2816L16.1653 23.7957ZM36.6254 23.7957L37.9321 25.3098L42.0036 21.7957H36.6254V23.7957ZM13.3746 26.2043L12.0679 24.6902L7.99639 28.2043H13.3746V26.2043ZM33.8347 26.2043V28.2043H34.5784L35.1415 27.7184L33.8347 26.2043ZM38.2659 8.22869C36.1343 6.38894 32.9259 6.64592 31.1089 8.79269L34.1621 11.3769C34.5459 10.9234 35.209 10.8741 35.6524 11.2568L38.2659 8.22869ZM48.2326 16.8308L38.2659 8.22869L35.6524 11.2568L45.619 19.8589L48.2326 16.8308ZM50 20.6989C50 19.2157 49.3573 17.8015 48.2326 16.8308L45.6191 19.8589C45.8577 20.0649 46 20.3711 46 20.6989H50ZM48.2326 24.5671C49.3573 23.5963 50 22.1822 50 20.6989H46C46 21.0268 45.8577 21.333 45.6191 21.539L48.2326 24.5671ZM38.5527 32.9216L48.2326 24.5671L45.619 21.539L35.9392 29.8935L38.5527 32.9216ZM34.5893 34.3978C36.0454 34.3978 37.4507 33.8728 38.5527 32.9216L35.9392 29.8935C35.5603 30.2206 35.0815 30.3978 34.5893 30.3978V34.3978ZM13.3746 34.3978H34.5893V30.3978H13.3746V34.3978ZM18.3326 34.035C18.3115 34.0169 18.2977 34.0049 18.2892 33.9976C18.2849 33.9939 18.282 33.9914 18.2803 33.9899C18.2794 33.9891 18.2788 33.9886 18.2785 33.9883C18.2783 33.9882 18.2782 33.9881 18.2782 33.9882C18.2783 33.9882 18.2783 33.9882 18.2783 33.9882C18.2783 33.9882 18.2784 33.9883 18.2784 33.9883C18.2785 33.9884 18.2788 33.9886 18.279 33.9888C18.2803 33.99 18.4847 36.8095 15.6668 37.018C15.6661 37.0174 15.6652 37.0167 15.665 37.0165C15.665 37.0165 15.6649 37.0164 15.6648 37.0164C15.6648 37.0163 15.6648 37.0163 15.6647 37.0163C15.6647 37.0163 15.6647 37.0163 15.6647 37.0163C15.6647 37.0163 15.6647 37.0163 15.6648 37.0163C15.6648 37.0164 15.6649 37.0164 15.665 37.0165C15.6651 37.0166 15.6653 37.0168 15.6656 37.017C15.6661 37.0175 15.6669 37.0181 15.6678 37.0189C15.6696 37.0205 15.6721 37.0226 15.675 37.0252C15.6809 37.0302 15.6886 37.0368 15.6962 37.0435C15.7115 37.0566 15.727 37.07 15.728 37.0709C15.7281 37.0709 15.7281 37.071 15.7282 37.0711C15.7282 37.0711 15.7284 37.0712 15.7284 37.0713C15.7286 37.0714 15.7295 37.0722 15.7303 37.0729C18.5486 36.8637 18.3433 34.0443 18.3423 34.0435C18.3421 34.0433 18.3419 34.0431 18.3418 34.043C18.3417 34.0429 18.3416 34.0428 18.3416 34.0428C18.3415 34.0427 18.3413 34.0426 18.3411 34.0424C18.3407 34.0421 18.3401 34.0416 18.3392 34.0408C18.3374 34.0393 18.3345 34.0367 18.3303 34.0331C18.3218 34.0258 18.3079 34.0138 18.2869 33.9956L15.6733 37.0237C15.6944 37.0419 15.7083 37.0539 15.7168 37.0612C15.721 37.0649 15.7239 37.0673 15.7257 37.0689C15.7266 37.0696 15.7272 37.0702 15.7275 37.0704C15.7277 37.0706 15.7277 37.0707 15.7277 37.0706C15.7277 37.0706 15.7277 37.0706 15.7277 37.0706C15.7277 37.0706 15.7276 37.0705 15.7276 37.0705C15.7275 37.0704 15.7272 37.0702 15.7271 37.0701C15.7261 37.0692 15.5208 34.2498 18.3391 34.0407C18.3398 34.0413 18.3408 34.0421 18.3409 34.0423C18.341 34.0423 18.3411 34.0424 18.3411 34.0424C18.3412 34.0425 18.3412 34.0425 18.3412 34.0425C18.3412 34.0425 18.3412 34.0425 18.3412 34.0425C18.3413 34.0425 18.3412 34.0425 18.3412 34.0425C18.3411 34.0424 18.3411 34.0424 18.341 34.0423C18.3408 34.0422 18.3406 34.042 18.3404 34.0418C18.3398 34.0413 18.3391 34.0407 18.3382 34.0399C18.3364 34.0383 18.3339 34.0362 18.3309 34.0336C18.3251 34.0286 18.3174 34.022 18.3097 34.0153C18.2945 34.0022 18.279 33.9888 18.2779 33.9879C18.2779 33.9878 18.2778 33.9878 18.2777 33.9877C18.2777 33.9877 18.2776 33.9876 18.2775 33.9875C18.2773 33.9874 18.2765 33.9866 18.2757 33.986C15.4578 34.1946 15.6622 37.0141 15.6635 37.0152C15.6637 37.0154 15.664 37.0157 15.6641 37.0157C15.6642 37.0158 15.6643 37.0159 15.6644 37.016C15.6645 37.0161 15.6647 37.0162 15.6648 37.0164C15.6652 37.0167 15.6658 37.0172 15.6667 37.018C15.6685 37.0195 15.6714 37.022 15.6756 37.0257C15.6841 37.033 15.698 37.045 15.719 37.0632L18.3326 34.035ZM18.8911 41.2073C20.6985 39.072 20.4527 35.8649 18.3326 34.035L15.719 37.0632C16.1739 37.4557 16.2314 38.1582 15.8379 38.6231L18.8911 41.2073ZM11.7341 41.7713C13.8657 43.6111 17.0741 43.3541 18.8911 41.2073L15.8379 38.6231C15.4541 39.0766 14.791 39.1259 14.3476 38.7432L11.7341 41.7713ZM1.76802 33.1697L1.76885 33.1704L4.38174 30.1418L4.38091 30.141L1.76802 33.1697ZM0 29.3011C0 30.7845 0.643177 32.1989 1.7677 33.1694L4.38123 30.1413C4.14239 29.9352 4 29.6287 4 29.3011H0ZM1.76742 25.4329C0.642707 26.4037 0 27.8178 0 29.3011H4C4 28.9732 4.14231 28.667 4.38096 28.461L1.76742 25.4329ZM11.4473 17.0784L1.76743 25.4329L4.38096 28.461L14.0608 20.1065L11.4473 17.0784ZM15.4107 15.6022C13.9546 15.6022 12.5493 16.1272 11.4473 17.0784L14.0608 20.1065C14.4397 19.7794 14.9185 19.6022 15.4107 19.6022V15.6022ZM36.6254 15.6022H15.4107V19.6022H36.6254V15.6022ZM31.6674 15.965L35.3186 19.1162L37.9321 16.0881L34.281 12.9368L31.6674 15.965ZM31.1089 8.79269C29.3015 10.928 29.5473 14.1351 31.6674 15.965L34.281 12.9368C33.8261 12.5443 33.7686 11.8418 34.1621 11.3769L31.1089 8.79269ZM16.1653 25.7957H36.6254V21.7957H16.1653V25.7957ZM14.6814 27.7184L17.4721 25.3098L14.8585 22.2816L12.0679 24.6902L14.6814 27.7184ZM33.8347 24.2043H13.3746V28.2043H33.8347V24.2043ZM35.3186 22.2816L32.5279 24.6902L35.1415 27.7184L37.9321 25.3098L35.3186 22.2816ZM18.2869 33.9956L14.6814 30.8838L12.0679 33.9119L15.6733 37.0237L18.2869 33.9956ZM1.76853 33.1702C5.02977 35.9849 8.41671 38.9081 11.7341 41.7713L14.3476 38.7432C11.0302 35.88 7.6433 32.9568 4.38206 30.142L1.76853 33.1702Z"
    fill="black" fill-opacity="0.2" mask="url(#path-1-inside-1_23_187)" />
  <defs>
    <linearGradient id="paint0_linear_23_187" x1="1.46512" y1="36.0345" x2="50.0867" y2="15.0844"
      gradientUnits="userSpaceOnUse">
      <stop stop-color="#C20000" />
      <stop offset="1" stop-color="#FF5722" />
    </linearGradient>
  </defs>
</svg>