<svg width="50" height="50" viewBox="0 0 50 50" fill="none" xmlns="http://www.w3.org/2000/svg">
  <path fill-rule="evenodd" clip-rule="evenodd"
    d="M31.9715 10.9831C32.9762 9.80486 34.7437 9.66608 35.9192 10.6731L45.0192 18.4688C45.6416 19.002 46 19.7815 46 20.6022C46 21.4228 45.6416 22.2024 45.0192 22.7355L35.9716 30.4863C35.4307 30.9497 34.7426 31.2043 34.0311 31.2043H14.3855L17.7192 34.0601C18.8947 35.0672 19.0332 36.8387 18.0285 38.0169C17.0238 39.1951 15.2563 39.3339 14.0808 38.3269C11.3353 35.975 8.57043 33.6064 5.84038 31.2676L4.98104 30.5314C4.35863 29.9982 4 29.2185 4 28.3978C4 27.5772 4.35838 26.7977 4.98078 26.2645L14.0284 18.5137C14.5693 18.0503 15.2574 17.7957 15.9689 17.7957H35.6145L32.2808 14.9399C31.1053 13.9328 30.9668 12.1613 31.9715 10.9831ZM35.6145 23.4086H16.9335L14.3855 25.5914H33.0665L35.6145 23.4086Z"
    fill="url(#paint0_linear_21_92)" />
  <path
    d="M14.3855 30.2043H11.6811L13.735 31.9637L17.0686 34.8196C17.8252 35.4676 17.9147 36.6091 17.2676 37.3681C16.6216 38.1256 15.4865 38.2144 14.7314 37.5674L6.49097 30.5082L5.84038 31.2676L6.49096 30.5082L5.63162 29.772C5.23123 29.429 5 28.9268 5 28.3978C5 27.8688 5.23107 27.3668 5.63137 27.0239L14.679 19.2731C15.0388 18.9648 15.4963 18.7957 15.9689 18.7957H35.6145H38.3189L36.265 17.0363L32.9314 14.1804C32.1748 13.5324 32.0853 12.3909 32.7324 11.6319C33.3784 10.8744 34.5135 10.7856 35.2686 11.4325L44.3686 19.2282C44.7689 19.5711 45 20.0731 45 20.6022C45 21.1312 44.7689 21.6332 44.3686 21.9761L35.321 29.7269C34.9612 30.0352 34.5037 30.2043 34.0311 30.2043H14.3855ZM16.9335 22.4086H16.5638L16.283 22.6492L13.735 24.832L11.6811 26.5914H14.3855H33.0665H33.4362L33.717 26.3508L36.265 24.168L38.3189 22.4086H35.6145H16.9335Z"
    stroke="black" stroke-opacity="0.15" stroke-width="2" />
  <defs>
    <linearGradient id="paint0_linear_21_92" x1="25" y1="10" x2="25" y2="39" gradientUnits="userSpaceOnUse">
      <stop stop-color="#002BC8" />
      <stop offset="1" stop-color="#5AE1FF" />
    </linearGradient>
  </defs>
</svg>