<svg width="50" height="50" viewBox="0 0 50 50" fill="none" xmlns="http://www.w3.org/2000/svg">
  <path fill-rule="evenodd" clip-rule="evenodd"
    d="M29.5178 8.05442C30.9437 6.64853 33.2556 6.64853 34.6815 8.05442L47 20.2L34.6815 32.3456C33.5667 33.4447 32.1364 34.0136 30.9493 34.3423C29.7022 34.6876 28.323 34.8746 26.9559 34.9722C24.2179 35.1678 21.0765 35.0338 18.1946 34.793C18.1184 34.7867 18.0422 34.7802 17.9661 34.7737L20.0765 36.8544C21.5024 38.2603 21.5024 40.5397 20.0765 41.9456C18.6505 43.3515 16.3387 43.3515 14.9128 41.9456L3 30.2L4.77625 27.7222L4.78437 27.7109L4.79986 27.6894L4.85249 27.617C4.89702 27.556 4.9603 27.47 5.041 27.3617C5.2023 27.1452 5.43379 26.8391 5.72487 26.4663C6.30539 25.7226 7.13135 24.7027 8.11716 23.5933C10.007 21.4665 12.7867 18.6606 15.7214 17.053C20.2848 14.5534 26.2691 14.3499 31.1135 14.7188L29.5178 13.1456C28.0919 11.7397 28.0919 9.4603 29.5178 8.05442ZM34.491 22.351C33.8123 22.2483 33.1007 22.1525 32.3668 22.0698C27.3841 21.508 22.3336 21.6677 19.2678 23.347C17.8388 24.1297 16.1985 25.5848 14.6691 27.1869C15.965 27.3463 17.3742 27.4987 18.8111 27.6187C21.5394 27.8466 24.2458 27.9469 26.4283 27.791C27.5215 27.7129 28.3708 27.5777 28.9748 27.4105C29.3602 27.3038 29.5364 27.2138 29.5844 27.1888L34.491 22.351Z"
    fill="url(#paint0_linear_30_7)" />
  <path
    d="M15.6149 41.2335L4.3107 30.088L5.58834 28.3057L5.58899 28.3048L5.59519 28.2962L5.59646 28.2944L5.60868 28.2775L5.61069 28.2747L5.66009 28.2068C5.66033 28.2064 5.66057 28.2061 5.66082 28.2058C5.70351 28.1473 5.76463 28.0642 5.84287 27.9592C6.00016 27.7481 6.2271 27.448 6.51311 27.0816C7.08393 26.3504 7.89617 25.3475 8.86469 24.2575C10.7417 22.1451 13.4266 19.4502 16.2018 17.9301C20.4986 15.5765 26.2348 15.3502 31.0375 15.7159L33.7594 15.9233L31.8156 14.0067L30.2199 12.4335C29.1912 11.4192 29.1912 9.78075 30.2199 8.7665C31.2565 7.7445 32.9428 7.7445 33.9794 8.7665L45.5757 20.2L33.9794 31.6335C33.0402 32.5595 31.7991 33.0693 30.6824 33.3786C29.5223 33.6998 28.2147 33.8798 26.8847 33.9748C24.2216 34.165 21.1389 34.0355 18.2779 33.7965L18.0517 33.7773L15.2907 33.5402L17.264 35.4858L19.3744 37.5665C20.4031 38.5808 20.4031 40.2192 19.3744 41.2335C18.3378 42.2555 16.6514 42.2555 15.6149 41.2335ZM35.1931 23.0631L36.615 21.6612L34.6407 21.3623C33.9507 21.2578 33.2265 21.1604 32.4789 21.0761C29.9445 20.7904 27.3695 20.6851 25.0196 20.8711C22.683 21.0561 20.4953 21.5344 18.7874 22.4699C17.2197 23.3287 15.4934 24.8752 13.9458 26.4964L12.5711 27.9364L14.547 28.1794C15.8531 28.3401 17.2754 28.4939 18.7279 28.6153C21.4768 28.8449 24.242 28.9498 26.4995 28.7885C27.6296 28.7078 28.5505 28.5656 29.2416 28.3742C29.6973 28.248 29.9391 28.1317 30.0471 28.0753L30.1798 28.006L30.2865 27.9009L35.1931 23.0631Z"
    stroke="black" stroke-opacity="0.2" stroke-width="2" stroke-linecap="round" />
  <defs>
    <linearGradient id="paint0_linear_30_7" x1="2.48837" y1="37.4138" x2="51.1054" y2="19.6029"
      gradientUnits="userSpaceOnUse">
      <stop stop-color="#DD781A" />
      <stop offset="0.4" stop-color="#DE553F" />
      <stop offset="1" stop-color="#DF2076" />
    </linearGradient>
  </defs>
</svg>